<svg xmlns="http://www.w3.org/2000/svg" width="420" height="780" viewBox="0 0 420 780">
  <defs>
    <linearGradient id="bg" x1="0" y1="0" x2="1" y2="1">
      <stop offset="0" stop-color="#FFF4E6"/>
      <stop offset="1" stop-color="#FFFFFF"/>
    </linearGradient>
    <linearGradient id="screen" x1="0" y1="0" x2="1" y2="1">
      <stop offset="0" stop-color="#0F172A" stop-opacity="0.08"/>
      <stop offset="1" stop-color="#0F172A" stop-opacity="0.02"/>
    </linearGradient>
  </defs>
  <rect width="420" height="780" rx="40" fill="url(#bg)"/>
  <rect x="80" y="90" width="260" height="600" rx="44" fill="#0B1220"/>
  <rect x="94" y="116" width="232" height="548" rx="36" fill="#FFFFFF"/>
  <rect x="94" y="116" width="232" height="170" rx="36" fill="url(#screen)"/>
  <circle cx="210" cy="138" r="6" fill="#0B1220" fill-opacity="0.25"/>
  <rect x="112" y="308" width="196" height="56" rx="20" fill="#0F172A" fill-opacity="0.06"/>
  <rect x="128" y="328" width="156" height="12" rx="6" fill="#0F172A" fill-opacity="0.10"/>
  <rect x="112" y="382" width="196" height="110" rx="22" fill="#F97316" fill-opacity="0.10"/>
  <rect x="128" y="404" width="168" height="12" rx="6" fill="#F97316" fill-opacity="0.35"/>
  <rect x="128" y="428" width="132" height="12" rx="6" fill="#0F172A" fill-opacity="0.10"/>
  <rect x="112" y="512" width="196" height="112" rx="22" fill="#0F172A" fill-opacity="0.06"/>
  <rect x="128" y="534" width="156" height="12" rx="6" fill="#0F172A" fill-opacity="0.10"/>
  <rect x="128" y="556" width="120" height="12" rx="6" fill="#0F172A" fill-opacity="0.08"/>
  <rect x="128" y="578" width="92" height="12" rx="6" fill="#0F172A" fill-opacity="0.06"/>
</svg>
